<?xml version="1.0" encoding="UTF-8"?><svg xmlns="http://www.w3.org/2000/svg" xmlns:xlink="http://www.w3.org/1999/xlink" width="1125" zoomAndPan="magnify" viewBox="0 0 1125 1124.99995" height="1124.99995" preserveAspectRatio="xMidYMid meet" version="1.0"><defs><clipPath id="clip-0"><path d="M 152.8125 193.78125 L 971.8125 193.78125 L 971.8125 931.03125 L 152.8125 931.03125 Z M 152.8125 193.78125 " clip-rule="nonzero"/></clipPath><clipPath id="clip-1"><path d="M 337 387 L 774 387 L 774 822.996094 L 337 822.996094 Z M 337 387 " clip-rule="nonzero"/></clipPath></defs><path fill="rgb(47.839355%, 62.348938%, 47.44873%)" d="M 693.355469 603.367188 C 693.355469 605.511719 693.300781 607.65625 693.195312 609.796875 C 693.089844 611.9375 692.933594 614.078125 692.722656 616.210938 C 692.511719 618.347656 692.25 620.476562 691.933594 622.597656 C 691.621094 624.71875 691.253906 626.832031 690.835938 628.9375 C 690.417969 631.039062 689.949219 633.132812 689.425781 635.210938 C 688.90625 637.292969 688.332031 639.359375 687.710938 641.414062 C 687.089844 643.464844 686.417969 645.5 685.695312 647.519531 C 684.972656 649.539062 684.199219 651.542969 683.378906 653.523438 C 682.558594 655.503906 681.6875 657.464844 680.773438 659.402344 C 679.855469 661.34375 678.890625 663.257812 677.878906 665.148438 C 676.871094 667.042969 675.8125 668.90625 674.710938 670.746094 C 673.609375 672.585938 672.460938 674.398438 671.269531 676.183594 C 670.078125 677.964844 668.84375 679.71875 667.566406 681.441406 C 666.289062 683.164062 664.96875 684.855469 663.609375 686.511719 C 662.25 688.171875 660.847656 689.796875 659.40625 691.386719 C 657.96875 692.972656 656.488281 694.527344 654.972656 696.042969 C 653.457031 697.5625 651.902344 699.039062 650.316406 700.480469 C 648.726562 701.921875 647.101562 703.320312 645.445312 704.683594 C 643.785156 706.042969 642.097656 707.363281 640.375 708.640625 C 638.652344 709.917969 636.898438 711.152344 635.117188 712.34375 C 633.332031 713.535156 631.519531 714.683594 629.683594 715.785156 C 627.84375 716.886719 625.976562 717.945312 624.085938 718.957031 C 622.195312 719.96875 620.28125 720.929688 618.339844 721.847656 C 616.402344 722.765625 614.441406 723.632812 612.460938 724.457031 C 610.480469 725.277344 608.480469 726.046875 606.460938 726.769531 C 604.441406 727.492188 602.40625 728.167969 600.351562 728.789062 C 598.300781 729.410156 596.234375 729.984375 594.152344 730.503906 C 592.074219 731.027344 589.980469 731.496094 587.878906 731.914062 C 585.773438 732.332031 583.664062 732.699219 581.542969 733.015625 C 579.421875 733.328125 577.292969 733.589844 575.15625 733.800781 C 573.023438 734.011719 570.886719 734.167969 568.742188 734.273438 C 566.601562 734.378906 564.457031 734.433594 562.3125 734.433594 C 560.167969 734.433594 558.027344 734.378906 555.882812 734.273438 C 553.742188 734.167969 551.605469 734.011719 549.46875 733.800781 C 547.335938 733.589844 545.207031 733.328125 543.085938 733.015625 C 540.964844 732.699219 538.851562 732.332031 536.75 731.914062 C 534.644531 731.496094 532.554688 731.027344 530.472656 730.503906 C 528.394531 729.984375 526.328125 729.410156 524.273438 728.789062 C 522.222656 728.167969 520.1875 727.492188 518.167969 726.769531 C 516.148438 726.046875 514.148438 725.277344 512.167969 724.457031 C 510.1875 723.632812 508.226562 722.765625 506.289062 721.847656 C 504.347656 720.929688 502.433594 719.96875 500.542969 718.957031 C 498.652344 717.945312 496.785156 716.886719 494.945312 715.785156 C 493.105469 714.683594 491.296875 713.535156 489.511719 712.34375 C 487.730469 711.152344 485.976562 709.917969 484.253906 708.640625 C 482.53125 707.363281 480.839844 706.042969 479.183594 704.683594 C 477.527344 703.320312 475.902344 701.921875 474.3125 700.480469 C 472.722656 699.039062 471.171875 697.5625 469.65625 696.042969 C 468.136719 694.527344 466.660156 692.972656 465.21875 691.386719 C 463.78125 689.796875 462.378906 688.171875 461.019531 686.511719 C 459.660156 684.855469 458.339844 683.164062 457.0625 681.441406 C 455.785156 679.71875 454.550781 677.964844 453.359375 676.183594 C 452.167969 674.398438 451.019531 672.585938 449.917969 670.746094 C 448.816406 668.90625 447.757812 667.042969 446.746094 665.148438 C 445.734375 663.257812 444.773438 661.34375 443.855469 659.402344 C 442.9375 657.464844 442.070312 655.503906 441.25 653.523438 C 440.429688 651.542969 439.65625 649.539062 438.933594 647.519531 C 438.210938 645.5 437.539062 643.464844 436.917969 641.414062 C 436.292969 639.359375 435.722656 637.292969 435.203125 635.210938 C 434.679688 633.132812 434.210938 631.039062 433.792969 628.9375 C 433.375 626.832031 433.007812 624.71875 432.691406 622.597656 C 432.378906 620.476562 432.117188 618.347656 431.90625 616.210938 C 431.695312 614.078125 431.539062 611.9375 431.433594 609.796875 C 431.328125 607.65625 431.273438 605.511719 431.273438 603.367188 C 431.273438 601.222656 431.328125 599.078125 431.433594 596.933594 C 431.539062 594.792969 431.695312 592.652344 431.90625 590.519531 C 432.117188 588.382812 432.378906 586.257812 432.691406 584.132812 C 433.007812 582.011719 433.375 579.898438 433.792969 577.796875 C 434.210938 575.691406 434.679688 573.601562 435.203125 571.519531 C 435.722656 569.4375 436.292969 567.371094 436.917969 565.320312 C 437.539062 563.265625 438.210938 561.230469 438.933594 559.210938 C 439.65625 557.191406 440.429688 555.191406 441.25 553.207031 C 442.070312 551.226562 442.9375 549.265625 443.855469 547.328125 C 444.773438 545.386719 445.734375 543.472656 446.746094 541.582031 C 447.757812 539.691406 448.816406 537.824219 449.917969 535.984375 C 451.019531 534.144531 452.167969 532.332031 453.359375 530.550781 C 454.550781 528.765625 455.785156 527.011719 457.0625 525.289062 C 458.339844 523.566406 459.660156 521.875 461.019531 520.21875 C 462.378906 518.558594 463.78125 516.9375 465.21875 515.347656 C 466.660156 513.757812 468.136719 512.203125 469.65625 510.6875 C 471.171875 509.171875 472.722656 507.691406 474.3125 506.25 C 475.902344 504.8125 477.527344 503.410156 479.183594 502.050781 C 480.839844 500.6875 482.53125 499.371094 484.253906 498.09375 C 485.976562 496.8125 487.730469 495.578125 489.511719 494.386719 C 491.296875 493.195312 493.105469 492.050781 494.945312 490.945312 C 496.785156 489.84375 498.652344 488.785156 500.542969 487.773438 C 502.433594 486.765625 504.347656 485.800781 506.289062 484.882812 C 508.226562 483.964844 510.1875 483.097656 512.167969 482.277344 C 514.148438 481.457031 516.148438 480.683594 518.167969 479.960938 C 520.1875 479.238281 522.222656 478.566406 524.273438 477.941406 C 526.328125 477.320312 528.394531 476.75 530.472656 476.226562 C 532.554688 475.707031 534.644531 475.234375 536.75 474.816406 C 538.851562 474.398438 540.964844 474.03125 543.085938 473.71875 C 545.207031 473.402344 547.335938 473.140625 549.46875 472.929688 C 551.605469 472.71875 553.742188 472.5625 555.882812 472.457031 C 558.027344 472.351562 560.167969 472.300781 562.3125 472.300781 C 564.457031 472.300781 566.601562 472.351562 568.742188 472.457031 C 570.886719 472.5625 573.023438 472.71875 575.15625 472.929688 C 577.292969 473.140625 579.421875 473.402344 581.542969 473.71875 C 583.664062 474.03125 585.773438 474.398438 587.878906 474.816406 C 589.980469 475.234375 592.074219 475.707031 594.152344 476.226562 C 596.234375 476.75 598.300781 477.320312 600.351562 477.941406 C 602.40625 478.566406 604.441406 479.238281 606.460938 479.960938 C 608.480469 480.683594 610.480469 481.457031 612.460938 482.277344 C 614.441406 483.097656 616.402344 483.964844 618.339844 484.882812 C 620.28125 485.800781 622.195312 486.765625 624.085938 487.773438 C 625.976562 488.785156 627.84375 489.84375 629.683594 490.945312 C 631.519531 492.050781 633.332031 493.195312 635.117188 494.386719 C 636.898438 495.578125 638.652344 496.8125 640.375 498.09375 C 642.097656 499.371094 643.785156 500.6875 645.445312 502.050781 C 647.101562 503.410156 648.726562 504.8125 650.316406 506.25 C 651.902344 507.691406 653.457031 509.171875 654.972656 510.6875 C 656.488281 512.203125 657.96875 513.757812 659.40625 515.347656 C 660.847656 516.9375 662.25 518.558594 663.609375 520.21875 C 664.96875 521.875 666.289062 523.566406 667.566406 525.289062 C 668.84375 527.011719 670.078125 528.765625 671.269531 530.550781 C 672.460938 532.332031 673.609375 534.144531 674.710938 535.984375 C 675.8125 537.824219 676.871094 539.691406 677.878906 541.582031 C 678.890625 543.472656 679.855469 545.386719 680.773438 547.328125 C 681.6875 549.265625 682.558594 551.226562 683.378906 553.207031 C 684.199219 555.191406 684.972656 557.191406 685.695312 559.210938 C 686.417969 561.230469 687.089844 563.265625 687.710938 565.320312 C 688.332031 567.371094 688.90625 569.4375 689.425781 571.519531 C 689.949219 573.601562 690.417969 575.691406 690.835938 577.796875 C 691.253906 579.898438 691.621094 582.011719 691.933594 584.132812 C 692.25 586.257812 692.511719 588.382812 692.722656 590.519531 C 692.933594 592.652344 693.089844 594.792969 693.195312 596.933594 C 693.300781 599.078125 693.355469 601.222656 693.355469 603.367188 Z M 693.355469 603.367188 " fill-opacity="1" fill-rule="nonzero"/><g clip-path="url(#clip-0)"><path fill="rgb(47.839355%, 62.348938%, 47.44873%)" d="M 439.464844 193.78125 L 364.527344 275.699219 L 234.714844 275.699219 C 189.464844 275.699219 152.816406 312.355469 152.816406 357.617188 L 152.816406 849.117188 C 152.816406 894.375 189.464844 931.03125 234.714844 931.03125 L 889.914062 931.03125 C 935.164062 931.03125 971.8125 894.375 971.8125 849.117188 L 971.8125 357.617188 C 971.8125 312.355469 935.164062 275.699219 889.914062 275.699219 L 760.101562 275.699219 L 685.164062 193.78125 Z M 562.3125 808.15625 C 449.292969 808.15625 357.5625 716.410156 357.5625 603.367188 C 357.5625 490.320312 449.292969 398.574219 562.3125 398.574219 C 675.335938 398.574219 767.0625 490.320312 767.0625 603.367188 C 767.0625 716.410156 675.335938 808.15625 562.3125 808.15625 Z M 562.3125 808.15625 " fill-opacity="1" fill-rule="nonzero"/></g><path fill="rgb(47.839355%, 62.348938%, 47.44873%)" d="M 562.386719 387.570312 C 448.6875 387.570312 356.511719 483.269531 356.511719 601.320312 C 356.511719 719.371094 448.6875 815.070312 562.386719 815.070312 C 676.089844 815.070312 768.261719 719.371094 768.261719 601.320312 C 768.261719 483.269531 676.089844 387.570312 562.386719 387.570312 Z M 562.386719 387.570312 " fill-opacity="1" fill-rule="nonzero"/><path fill="rgb(100%, 100%, 100%)" d="M 706.957031 454.058594 C 651.59375 398.679688 573.511719 379.941406 502.746094 397.789062 C 434.457031 416.0625 360.902344 457.558594 343.074219 575.503906 C 333.957031 639.984375 354.171875 707.820312 403.738281 757.414062 C 441.003906 794.695312 488.566406 815.335938 537.273438 819.433594 C 537.621094 795.855469 536.777344 780.738281 536.425781 775.632812 C 536.226562 773.253906 536.113281 771.332031 536.113281 770.035156 C 536.113281 759.066406 490.503906 734.054688 486.117188 698.515625 C 481.738281 662.976562 512.722656 478.113281 513.90625 469.046875 C 515.066406 459.976562 519.15625 458.660156 521.0625 459.054688 C 522.964844 459.441406 522.519531 461.003906 522.519531 461.003906 C 522.519531 461.003906 517.109375 639.726562 516.972656 644.988281 C 516.816406 650.257812 516.816406 655.375 522.808594 655.519531 C 528.808594 655.667969 529.539062 648.054688 529.539062 648.054688 C 529.539062 648.054688 539.183594 476.503906 540.5 465.539062 C 541.816406 454.570312 546.933594 463.339844 546.933594 463.339844 L 547.515625 645.425781 C 547.515625 645.425781 546.355469 656.980469 554.25 657.421875 C 564.917969 657.277344 563.171875 645.425781 563.171875 645.425781 L 563.761719 463.339844 C 563.761719 463.339844 568.875 454.570312 570.191406 465.539062 C 571.511719 476.503906 581.152344 648.054688 581.152344 648.054688 C 581.152344 648.054688 581.882812 655.667969 587.878906 655.519531 C 593.871094 655.375 593.871094 650.257812 593.726562 644.988281 C 593.574219 639.726562 588.171875 461.003906 588.171875 461.003906 C 588.171875 461.003906 587.738281 459.441406 589.628906 459.054688 C 591.535156 458.660156 595.621094 459.976562 596.796875 469.046875 C 597.964844 478.113281 628.953125 662.976562 624.570312 698.515625 C 620.183594 734.054688 574.578125 759.066406 574.578125 770.035156 C 574.578125 771.464844 574.4375 773.667969 574.214844 776.40625 C 574.121094 777.398438 573.128906 789.894531 573.363281 819.445312 C 622.074219 815.355469 669.671875 794.707031 706.957031 757.414062 C 790.683594 673.644531 790.683594 537.828125 706.957031 454.058594 " fill-opacity="1" fill-rule="nonzero"/><g clip-path="url(#clip-1)"><path fill="rgb(47.839355%, 62.348938%, 47.44873%)" d="M 706.957031 454.058594 L 709.304688 451.714844 C 666.796875 409.195312 611.070312 387.941406 555.375 387.941406 C 537.414062 387.945312 519.453125 390.152344 501.933594 394.574219 L 501.886719 394.585938 C 467.433594 403.804688 431.417969 418.933594 401.714844 446.847656 C 372.003906 474.753906 348.785156 515.429688 339.796875 575.007812 L 339.796875 575.039062 C 338.355469 585.207031 337.636719 595.457031 337.636719 605.707031 C 337.632812 661.453125 358.882812 717.226562 401.398438 759.757812 C 439.226562 797.613281 487.546875 818.582031 537 822.742188 C 537.917969 822.816406 538.816406 822.511719 539.5 821.890625 C 540.183594 821.273438 540.578125 820.402344 540.589844 819.480469 C 540.644531 815.59375 540.671875 811.933594 540.671875 808.507812 C 540.671875 791.078125 540.03125 779.742188 539.734375 775.410156 L 539.730469 775.359375 C 539.53125 773.03125 539.429688 771.148438 539.429688 770.035156 C 539.429688 768.769531 539.113281 767.609375 538.65625 766.527344 C 537.785156 764.5 536.425781 762.632812 534.71875 760.628906 C 531.742188 757.144531 527.652344 753.300781 523.09375 748.941406 C 516.265625 742.421875 508.40625 734.796875 501.996094 726.234375 C 495.570312 717.671875 490.648438 708.230469 489.410156 698.113281 C 489.148438 695.976562 489.007812 693.09375 489.007812 689.628906 C 489.007812 677.332031 490.683594 657.832031 493.238281 635.523438 C 497.066406 602.035156 502.847656 562.121094 507.769531 529.800781 C 510.230469 513.644531 512.480469 499.378906 514.164062 488.757812 C 515.007812 483.445312 515.707031 479.046875 516.226562 475.769531 C 516.742188 472.484375 517.074219 470.375 517.1875 469.472656 L 517.1875 469.46875 C 517.660156 465.789062 518.640625 463.902344 519.332031 463.082031 C 519.6875 462.667969 519.960938 462.492188 520.140625 462.402344 C 520.324219 462.316406 520.425781 462.316406 520.449219 462.316406 L 520.449219 462.035156 L 520.390625 462.304688 L 520.449219 462.308594 L 520.449219 462.035156 L 520.390625 462.304688 L 520.40625 462.304688 L 520.4375 462.152344 L 520.394531 462.304688 L 520.40625 462.304688 L 520.4375 462.152344 L 520.394531 462.304688 L 520.714844 461.167969 L 520.042969 462.121094 C 520.214844 462.242188 520.355469 462.292969 520.394531 462.304688 L 520.714844 461.167969 L 520.042969 462.121094 L 521.136719 460.566406 L 519.390625 461.296875 C 519.503906 461.597656 519.777344 461.945312 520.042969 462.121094 L 521.136719 460.566406 L 519.390625 461.296875 L 521.023438 460.613281 L 519.25 460.613281 C 519.25 460.769531 519.265625 460.992188 519.390625 461.296875 L 521.023438 460.613281 L 519.25 460.613281 L 521.136719 460.613281 L 519.328125 460.105469 C 519.269531 460.308594 519.25 460.414062 519.25 460.613281 L 521.136719 460.613281 L 519.328125 460.105469 C 519.25 460.375 519.214844 460.625 519.203125 460.90625 C 519.203125 460.910156 513.796875 639.613281 513.65625 644.898438 L 513.65625 644.886719 C 513.636719 645.628906 513.613281 646.386719 513.613281 647.160156 C 513.613281 648.355469 513.65625 649.574219 513.84375 650.808594 C 513.980469 651.730469 514.203125 652.667969 514.582031 653.605469 C 515.136719 654.996094 516.125 656.414062 517.597656 657.375 C 519.058594 658.34375 520.835938 658.792969 522.730469 658.832031 L 522.738281 658.832031 L 522.984375 658.835938 C 524.070312 658.835938 525.105469 658.660156 526.046875 658.328125 C 527.699219 657.746094 528.988281 656.710938 529.902344 655.617188 C 531.28125 653.96875 531.941406 652.210938 532.335938 650.855469 C 532.726562 649.496094 532.824219 648.515625 532.839844 648.375 L 532.847656 648.242188 C 532.847656 648.238281 533 645.5625 533.265625 640.851562 C 534.195312 624.359375 536.546875 582.976562 538.808594 544.527344 C 539.9375 525.296875 541.046875 506.800781 541.941406 492.519531 C 542.386719 485.378906 542.785156 479.289062 543.101562 474.695312 C 543.261719 472.394531 543.402344 470.472656 543.523438 468.984375 C 543.636719 467.503906 543.734375 466.425781 543.796875 465.933594 C 544.007812 464.0625 544.386719 463.007812 544.519531 462.800781 L 544.546875 462.761719 L 544.035156 462.414062 L 544.46875 462.847656 L 544.546875 462.761719 L 544.035156 462.414062 L 544.46875 462.847656 L 543.328125 461.703125 L 543.96875 463.179688 C 544.207031 463.078125 544.382812 462.9375 544.46875 462.847656 L 543.328125 461.703125 L 543.96875 463.179688 L 543.199219 461.402344 L 543.199219 463.335938 C 543.433594 463.339844 543.722656 463.285156 543.96875 463.179688 L 543.199219 461.402344 L 543.199219 463.335938 L 543.199219 461.835938 L 542.636719 463.238281 C 542.71875 463.273438 542.910156 463.335938 543.199219 463.335938 L 543.199219 461.835938 L 542.636719 463.238281 L 542.851562 462.699219 L 542.574219 463.210938 L 542.636719 463.238281 L 542.851562 462.699219 L 542.574219 463.210938 L 542.589844 463.222656 C 542.722656 463.292969 543.214844 463.792969 543.542969 464.238281 C 543.714844 464.464844 543.851562 464.679688 543.953125 464.824219 L 544.050781 464.988281 L 544.070312 465.019531 L 544.074219 465.023438 L 545.769531 464.019531 L 544.070312 465.015625 L 544.074219 465.023438 L 545.769531 464.019531 L 544.070312 465.015625 L 546.933594 463.339844 L 543.621094 463.351562 L 544.199219 645.4375 L 547.515625 645.425781 L 544.222656 645.097656 C 544.210938 645.179688 544.144531 645.882812 544.144531 646.957031 C 544.160156 648.78125 544.296875 651.652344 545.519531 654.550781 C 546.136719 655.996094 547.074219 657.476562 548.519531 658.660156 C 549.960938 659.847656 551.914062 660.625 554.0625 660.734375 L 554.292969 660.738281 C 556.757812 660.707031 558.929688 660.140625 560.695312 659.132812 C 562.019531 658.375 563.089844 657.378906 563.898438 656.3125 C 565.121094 654.703125 565.765625 652.964844 566.132812 651.382812 C 566.503906 649.800781 566.589844 648.359375 566.589844 647.242188 C 566.589844 645.933594 566.464844 645.066406 566.449219 644.945312 L 563.171875 645.425781 L 566.488281 645.4375 L 567.078125 463.351562 L 563.761719 463.339844 L 566.625 465.015625 L 566.601562 465 L 566.625 465.015625 L 566.601562 465 L 566.625 465.015625 C 566.671875 464.933594 567.109375 464.242188 567.570312 463.730469 C 567.792969 463.476562 568.027344 463.273438 568.101562 463.222656 L 568.125 463.210938 L 567.496094 462.066406 L 567.496094 463.335938 C 567.917969 463.332031 568.113281 463.210938 568.125 463.210938 L 567.496094 462.066406 L 567.496094 463.335938 L 567.496094 461.453125 L 566.410156 463 C 566.652344 463.191406 567.132812 463.351562 567.496094 463.335938 L 567.496094 461.453125 L 566.410156 463 L 567.179688 461.898438 L 566.203125 462.828125 L 566.410156 463 L 567.179688 461.898438 L 566.203125 462.828125 L 566.636719 462.414062 L 566.144531 462.761719 L 566.203125 462.828125 L 566.636719 462.414062 L 566.144531 462.761719 L 566.171875 462.796875 C 566.300781 463 566.6875 464.050781 566.902344 465.933594 C 566.96875 466.503906 567.085938 467.8125 567.226562 469.648438 C 568.292969 483.511719 570.953125 528.210938 573.335938 569.375 C 574.53125 589.964844 575.65625 609.679688 576.480469 624.25 C 576.894531 631.539062 577.238281 637.535156 577.46875 641.710938 C 577.707031 645.890625 577.835938 648.238281 577.84375 648.242188 L 577.847656 648.375 C 577.882812 648.59375 578.066406 650.75 579.261719 653.242188 C 579.867188 654.480469 580.757812 655.839844 582.167969 656.960938 C 582.867188 657.515625 583.703125 657.996094 584.644531 658.328125 C 585.582031 658.660156 586.625 658.835938 587.703125 658.835938 L 587.914062 658.835938 L 587.953125 658.832031 C 589.652344 658.792969 591.238281 658.4375 592.605469 657.667969 C 593.632812 657.09375 594.492188 656.296875 595.121094 655.410156 C 596.066406 654.074219 596.523438 652.621094 596.777344 651.238281 C 597.027344 649.839844 597.078125 648.460938 597.078125 647.113281 C 597.078125 646.359375 597.0625 645.621094 597.042969 644.898438 L 597.042969 644.894531 C 596.890625 639.617188 591.488281 460.90625 591.488281 460.90625 C 591.484375 460.625 591.441406 460.367188 591.363281 460.101562 L 589.53125 460.621094 L 591.445312 460.621094 C 591.441406 460.414062 591.421875 460.304688 591.363281 460.101562 L 589.53125 460.621094 L 591.445312 460.621094 L 589.746094 460.621094 L 591.390625 461.054688 C 591.4375 460.867188 591.445312 460.730469 591.445312 460.621094 L 589.746094 460.621094 L 591.390625 461.054688 L 589.523438 460.5625 L 590.832031 461.984375 C 591.121094 461.71875 591.324219 461.324219 591.390625 461.054688 L 589.523438 460.5625 L 590.832031 461.984375 L 589.753906 460.804688 L 590.441406 462.246094 C 590.546875 462.199219 590.691406 462.105469 590.832031 461.984375 L 589.753906 460.804688 L 590.441406 462.246094 L 590.015625 461.359375 L 590.324219 462.292969 L 590.441406 462.246094 L 590.015625 461.359375 L 590.324219 462.292969 L 590.230469 462.007812 L 590.285156 462.304688 L 590.324219 462.292969 L 590.230469 462.007812 L 590.285156 462.304688 L 590.300781 462.304688 L 590.246094 462.035156 L 590.246094 462.308594 L 590.300781 462.304688 L 590.246094 462.035156 L 590.246094 462.308594 C 590.265625 462.316406 590.371094 462.316406 590.550781 462.402344 C 590.816406 462.539062 591.316406 462.863281 591.917969 463.910156 C 592.515625 464.949219 593.15625 466.714844 593.507812 469.472656 C 593.585938 470.082031 593.757812 471.199219 594.015625 472.878906 C 595.957031 485.375 602.878906 527.867188 609.3125 573.140625 C 612.53125 595.773438 615.628906 619.09375 617.914062 639.667969 C 620.203125 660.234375 621.679688 678.101562 621.679688 689.628906 C 621.679688 693.089844 621.546875 695.976562 621.28125 698.113281 C 620.265625 706.34375 616.835938 714.105469 612.128906 721.332031 C 605.078125 732.175781 595.191406 741.695312 586.949219 749.558594 C 582.828125 753.5 579.117188 757.019531 576.320312 760.230469 C 574.914062 761.835938 573.734375 763.371094 572.832031 764.929688 C 572.386719 765.71875 572.003906 766.511719 571.722656 767.355469 C 571.445312 768.195312 571.261719 769.09375 571.261719 770.035156 C 571.261719 771.269531 571.132812 773.433594 570.910156 776.128906 L 574.214844 776.40625 L 570.917969 776.089844 C 570.886719 776.382812 570.816406 777.191406 570.730469 778.660156 C 570.460938 783.050781 570.007812 793.167969 570.007812 810.699219 C 570.007812 813.4375 570.019531 816.359375 570.046875 819.46875 C 570.050781 820.394531 570.445312 821.269531 571.125 821.890625 C 571.808594 822.511719 572.71875 822.824219 573.636719 822.746094 C 623.09375 818.597656 671.449219 797.625 709.304688 759.757812 C 751.804688 717.238281 773.070312 661.46875 773.066406 605.738281 C 773.070312 550.003906 751.804688 494.234375 709.304688 451.714844 L 706.957031 454.058594 L 704.609375 456.40625 C 745.832031 497.652344 766.433594 551.679688 766.433594 605.738281 C 766.433594 659.792969 745.835938 713.820312 704.609375 755.066406 C 667.894531 791.792969 621.054688 812.109375 573.082031 816.136719 L 573.363281 819.445312 L 576.675781 819.414062 C 576.652344 816.324219 576.640625 813.421875 576.640625 810.699219 C 576.640625 799.089844 576.84375 790.78125 577.050781 785.277344 C 577.152344 782.527344 577.261719 780.472656 577.351562 779.0625 C 577.433594 777.660156 577.5 776.871094 577.515625 776.714844 L 577.519531 776.679688 C 577.75 773.898438 577.894531 771.667969 577.894531 770.035156 C 577.890625 769.933594 577.929688 769.609375 578.148438 769.109375 C 578.535156 768.152344 579.53125 766.660156 581.011719 764.941406 C 583.601562 761.898438 587.613281 758.097656 592.175781 753.742188 C 599.03125 747.183594 607.167969 739.328125 614.003906 730.214844 C 620.824219 721.101562 626.40625 710.671875 627.859375 698.925781 C 628.175781 696.367188 628.3125 693.265625 628.3125 689.628906 C 628.304688 676.785156 626.597656 657.203125 624.039062 634.765625 C 620.1875 601.125 614.40625 561.164062 609.476562 528.800781 C 607.015625 512.625 604.765625 498.347656 603.082031 487.714844 C 602.238281 482.402344 601.539062 478.003906 601.019531 474.738281 C 600.765625 473.101562 600.554688 471.753906 600.394531 470.714844 C 600.238281 469.683594 600.128906 468.953125 600.082031 468.621094 C 599.496094 464.125 598.238281 460.988281 596.441406 458.820312 C 595.542969 457.75 594.507812 456.945312 593.429688 456.425781 C 592.359375 455.910156 591.261719 455.675781 590.246094 455.675781 C 589.800781 455.679688 589.371094 455.722656 588.953125 455.808594 L 588.964844 455.804688 C 588.339844 455.933594 587.710938 456.15625 587.140625 456.5 C 586.277344 457.007812 585.59375 457.820312 585.246094 458.605469 C 584.886719 459.390625 584.816406 460.097656 584.816406 460.621094 C 584.816406 461.277344 584.929688 461.707031 584.988281 461.90625 L 588.171875 461.003906 L 584.863281 461.105469 C 584.863281 461.113281 584.945312 463.894531 585.089844 468.792969 C 586.132812 503.074219 590.28125 640.488281 590.410156 645.082031 L 590.410156 645.074219 C 590.429688 645.785156 590.445312 646.46875 590.445312 647.113281 C 590.445312 648.132812 590.40625 649.054688 590.292969 649.792969 C 590.214844 650.347656 590.09375 650.785156 589.96875 651.09375 C 589.769531 651.5625 589.632812 651.699219 589.4375 651.839844 C 589.234375 651.96875 588.808594 652.171875 587.800781 652.203125 L 587.878906 655.519531 L 587.839844 652.203125 L 587.703125 652.203125 C 587.328125 652.203125 587.070312 652.144531 586.851562 652.070312 C 586.480469 651.9375 586.183594 651.726562 585.855469 651.339844 C 585.371094 650.78125 584.945312 649.828125 584.722656 649.023438 C 584.609375 648.625 584.535156 648.269531 584.496094 648.027344 C 584.472656 647.910156 584.464844 647.816406 584.453125 647.765625 L 584.449219 647.71875 L 583.359375 647.84375 L 584.449219 647.738281 L 584.449219 647.71875 L 583.359375 647.84375 L 584.449219 647.738281 L 581.152344 648.054688 L 584.464844 647.875 C 584.464844 647.867188 582.050781 604.980469 579.472656 560.71875 C 578.191406 538.585938 576.859375 516.113281 575.769531 498.476562 C 575.226562 489.660156 574.738281 482.054688 574.351562 476.304688 C 574.152344 473.425781 573.984375 471.015625 573.839844 469.140625 C 573.691406 467.253906 573.578125 465.941406 573.484375 465.140625 C 573.191406 462.796875 572.78125 461.085938 571.976562 459.589844 C 571.5625 458.851562 571.019531 458.136719 570.226562 457.578125 C 569.449219 457.011719 568.414062 456.691406 567.496094 456.703125 C 566.757812 456.703125 566.109375 456.871094 565.574219 457.085938 C 564.640625 457.472656 563.996094 457.980469 563.445312 458.472656 C 562.632812 459.21875 562.046875 459.976562 561.617188 460.574219 C 561.191406 461.175781 560.9375 461.609375 560.898438 461.671875 C 560.605469 462.175781 560.453125 462.753906 560.445312 463.332031 L 559.855469 645.417969 C 559.855469 645.558594 559.871094 645.773438 559.890625 645.914062 L 560.839844 645.773438 L 559.886719 645.898438 L 559.890625 645.914062 L 560.839844 645.773438 L 559.886719 645.898438 C 559.898438 645.941406 559.960938 646.472656 559.960938 647.242188 C 559.964844 647.90625 559.90625 648.746094 559.742188 649.570312 C 559.621094 650.191406 559.4375 650.800781 559.1875 651.335938 C 558.816406 652.144531 558.335938 652.75 557.648438 653.21875 C 556.949219 653.679688 555.949219 654.074219 554.203125 654.105469 L 554.25 657.421875 L 554.433594 654.109375 C 553.53125 654.042969 553.109375 653.824219 552.707031 653.511719 C 552.410156 653.269531 552.121094 652.921875 551.863281 652.445312 C 551.46875 651.734375 551.164062 650.746094 550.996094 649.734375 C 550.820312 648.722656 550.773438 647.703125 550.773438 646.957031 C 550.773438 646.5625 550.785156 646.242188 550.796875 646.035156 L 550.816406 645.800781 L 550.816406 645.753906 L 548.910156 645.566406 L 550.816406 645.765625 L 550.816406 645.753906 L 548.910156 645.566406 L 550.816406 645.765625 C 550.832031 645.625 550.832031 645.558594 550.832031 645.417969 L 550.25 463.332031 C 550.246094 462.753906 550.089844 462.175781 549.796875 461.671875 C 549.734375 461.574219 549.183594 460.621094 548.261719 459.527344 C 547.789062 458.980469 547.230469 458.394531 546.472656 457.839844 C 546.089844 457.570312 545.652344 457.300781 545.117188 457.085938 C 544.582031 456.871094 543.9375 456.703125 543.199219 456.703125 C 542.277344 456.691406 541.242188 457.011719 540.464844 457.578125 C 539.875 457.996094 539.417969 458.511719 539.054688 459.042969 C 538.511719 459.851562 538.160156 460.722656 537.871094 461.714844 C 537.578125 462.703125 537.371094 463.824219 537.210938 465.140625 C 537.117188 465.941406 537.003906 467.257812 536.859375 469.140625 C 535.78125 483.160156 533.125 527.796875 530.734375 568.988281 C 528.347656 610.171875 526.230469 647.867188 526.230469 647.867188 L 529.539062 648.054688 L 526.238281 647.738281 L 526.289062 647.746094 L 526.238281 647.738281 L 526.289062 647.746094 L 526.238281 647.738281 C 526.230469 647.921875 525.976562 649.449219 525.351562 650.5625 C 525.054688 651.125 524.695312 651.554688 524.351562 651.796875 C 523.996094 652.039062 523.691406 652.1875 522.984375 652.203125 L 522.882812 652.203125 L 522.886719 652.203125 C 521.996094 652.179688 521.550781 652.011719 521.328125 651.886719 C 521.164062 651.785156 521.078125 651.714844 520.964844 651.558594 C 520.800781 651.335938 520.582031 650.855469 520.441406 650.082031 C 520.300781 649.316406 520.246094 648.296875 520.246094 647.160156 C 520.246094 646.503906 520.261719 645.8125 520.28125 645.085938 L 520.28125 645.074219 C 520.355469 642.46875 521.742188 596.453125 523.109375 551.125 C 523.800781 528.453125 524.476562 505.949219 524.984375 489.109375 C 525.238281 480.691406 525.453125 473.691406 525.601562 468.792969 C 525.746094 463.894531 525.835938 461.113281 525.835938 461.105469 L 522.519531 461.003906 L 525.710938 461.898438 C 525.761719 461.703125 525.875 461.277344 525.882812 460.613281 C 525.882812 460.261719 525.84375 459.835938 525.714844 459.351562 C 525.535156 458.632812 525.089844 457.757812 524.347656 457.089844 C 523.613281 456.410156 522.664062 455.992188 521.726562 455.804688 L 521.742188 455.808594 C 521.316406 455.722656 520.886719 455.679688 520.449219 455.679688 C 519.433594 455.675781 518.332031 455.910156 517.261719 456.425781 C 515.640625 457.203125 514.136719 458.628906 513.003906 460.636719 C 511.867188 462.652344 511.050781 465.242188 510.613281 468.621094 L 510.613281 468.617188 C 510.558594 469.066406 510.386719 470.203125 510.128906 471.855469 C 508.191406 484.300781 501.257812 526.867188 494.808594 572.207031 C 491.585938 594.882812 488.484375 618.253906 486.183594 638.9375 C 483.882812 659.628906 482.378906 677.582031 482.375 689.628906 C 482.378906 693.265625 482.515625 696.367188 482.828125 698.925781 C 484.007812 708.460938 487.925781 717.152344 493.007812 724.953125 C 500.632812 736.652344 510.910156 746.464844 519.164062 754.355469 C 523.285156 758.289062 526.914062 761.757812 529.378906 764.589844 C 530.613281 765.996094 531.550781 767.257812 532.109375 768.238281 C 532.386719 768.722656 532.574219 769.140625 532.679688 769.449219 C 532.78125 769.761719 532.796875 769.957031 532.796875 770.035156 C 532.804688 771.511719 532.921875 773.480469 533.125 775.914062 L 536.425781 775.632812 L 533.117188 775.859375 C 533.402344 780.058594 534.042969 791.238281 534.042969 808.507812 C 534.042969 811.902344 534.015625 815.53125 533.957031 819.386719 L 537.273438 819.433594 L 537.554688 816.128906 C 489.585938 812.089844 442.78125 791.777344 406.085938 755.066406 C 364.855469 713.816406 344.273438 659.777344 344.265625 605.707031 C 344.265625 595.769531 344.964844 585.828125 346.359375 575.964844 L 346.355469 575.996094 C 355.199219 517.625 377.667969 478.582031 406.257812 451.683594 C 434.855469 424.800781 469.761719 410.042969 503.601562 400.996094 L 502.746094 397.789062 L 503.554688 401.003906 C 520.539062 396.71875 537.957031 394.574219 555.375 394.578125 C 609.402344 394.578125 663.382812 415.164062 704.609375 456.40625 L 706.957031 454.058594 " fill-opacity="1" fill-rule="nonzero"/></g></svg>